<svg width="16" height="15" viewBox="0 0 16 15" fill="none" xmlns="http://www.w3.org/2000/svg">
<path d="M14.7407 0H2.03431C1.42752 0 0.933594 0.484375 0.933594 1.08125V13.9177C0.933594 14.5156 1.42648 15 2.03431 15H14.7407C15.3485 15 15.8445 14.5146 15.8445 13.9177V1.08125C15.8445 0.484375 15.3496 0 14.7407 0ZM5.35613 12.7823H3.14435V5.62396H5.35613V12.7823ZM4.25128 4.64479C3.54301 4.64479 2.96831 4.06667 2.96831 3.35417C2.96831 2.64271 3.54197 2.06458 4.25128 2.06458C4.95851 2.06458 5.5332 2.64271 5.5332 3.35417C5.53217 4.06667 4.95748 4.64479 4.25128 4.64479ZM13.64 12.7823H11.4303V9.30104C11.4303 8.47083 11.4147 7.40312 10.2809 7.40312C9.12943 7.40312 8.9534 8.30729 8.9534 9.24167V12.7833H6.74368V5.62396H8.86538V6.60208H8.89438C9.18949 6.03958 9.91122 5.44583 10.9871 5.44583C13.2268 5.44583 13.64 6.92812 13.64 8.85625V12.7823Z" fill="white"/>
</svg>
