<svg width="59" height="69" viewBox="0 0 59 69" fill="none" xmlns="http://www.w3.org/2000/svg">
<path d="M13.3944 66.4146L6.60159 58.8049L2 40.8537L8.79283 27.1951L14.9283 36.1707L28.2948 21.9268V3L46.0438 25.0488L43.6935 45.9268L50.6454 42.2195L57 34.4146L55.247 54.3171L40.3466 60.7561L49.3307 62.3171L37.2789 67L13.7186 66.4226L13.3944 66.4146Z" fill="white"/>
<path d="M14.9283 36.1707L8.79283 27.1951L2 40.8537L6.60159 58.8049L13.3944 66.4146L37.2789 67L49.3307 62.3171L40.3466 60.7561L55.247 54.3171L57 34.4146L50.6454 42.2195L43.6935 45.9268M14.9283 36.1707L28.2948 21.9268M14.9283 36.1707L19.3108 45.9268M28.2948 21.9268V3L46.0438 25.0488L43.6935 45.9268M28.2948 21.9268L19.3108 45.9268M43.6935 45.9268L19.3108 56.4634M19.3108 45.9268V56.4634M19.3108 56.4634L13.3944 67" stroke="#101218" stroke-width="2"/>
</svg>
