<svg width="75" height="63" viewBox="0 0 75 63" fill="none" xmlns="http://www.w3.org/2000/svg">
<path d="M73 19.3333L37.5 61L2 19.3333L16.6176 1H37.5H58.3824L73 19.3333Z" fill="white"/>
<path d="M37.5 61L73 19.3333M37.5 61L2 19.3333M37.5 61L23.7347 19.3333M37.5 61L51.9898 19.3333M73 19.3333L58.3824 1M73 19.3333H51.9898M58.3824 1H37.5M58.3824 1L51.9898 19.3333M16.6176 1L2 19.3333M16.6176 1L23.7347 19.3333M16.6176 1H37.5M2 19.3333H23.7347M23.7347 19.3333L37.5 1M23.7347 19.3333H51.9898M37.5 1L51.9898 19.3333" stroke="#101218" stroke-width="2"/>
</svg>
